<svg id="Capa_1" enable-background="new 0 0 512 512" height="512" viewBox="0 0 512 512" width="512" xmlns="http://www.w3.org/2000/svg"><g><path d="m512 488.94v23.06h-103.29l-15-15-15 15h-245.42l-15-15-15 15h-103.29v-23.06c0-39.01 27.72-72.53 66.04-79.84l116.82-22.3h146.28l116.82 22.3c38.32 7.31 66.04 40.83 66.04 79.84z" fill="#8cf2f2"/><path d="m512 488.94v23.06h-103.29l-15-15-15 15h-122.71v-125.2h73.14l116.82 22.3c38.32 7.31 66.04 40.83 66.04 79.84z" fill="#57d9d4"/><path d="m103.286 469.333h30v42.667h-30z" fill="#57d9d4"/><path d="m378.714 469.333h30v42.667h-30z" fill="#26bfbf"/><path d="m329.14 314.08v72.72c-16.34 28-44.74 42.01-73.14 42.01s-56.8-14.01-73.14-42.01v-72.72z" fill="#ffbfab"/><path d="m329.14 314.08v72.72c-16.34 28-44.74 42.01-73.14 42.01v-114.73z" fill="#eaa492"/><path d="m400.517 144.517v65.871h-289.034v-65.871c0-39.91 16.18-76.034 42.331-102.196 26.152-26.141 62.276-42.321 102.186-42.321 79.809 0 144.517 64.697 144.517 144.517z" fill="#714b55"/><path d="m400.517 144.517v65.871h-144.517v-210.388c79.809 0 144.517 64.697 144.517 144.517z" fill="#5c344b"/><path d="m426.003 215.919c0 27.167-22.017 49.184-49.184 49.184h-21.446v.56c0 29.208-11.125 55.656-29.102 74.797-17.988 19.141-42.829 30.985-70.271 30.985-54.884 0-99.373-47.365-99.373-105.781v-.56h-21.446c-13.589 0-25.877-5.51-34.781-14.403-8.904-8.904-14.403-21.203-14.403-34.781 0-27.156 22.017-49.174 49.184-49.174h21.446c0-15.027 6.091-28.637 15.936-38.482s23.455-15.937 38.472-15.937c14.234 6.757 29.599 10.131 44.965 10.131 15.365 0 30.731-3.373 44.965-10.131 15.016 0 28.626 6.091 38.472 15.937 9.845 9.845 15.936 23.455 15.936 38.482h21.446c13.589 0 25.877 5.499 34.781 14.403s14.403 21.192 14.403 34.77z" fill="#ffcebf"/><path d="m426.003 215.919c0 27.167-22.017 49.184-49.184 49.184h-21.446v.56c0 29.208-11.125 55.656-29.102 74.797-17.988 19.141-42.829 30.985-70.271 30.985v-248.987c15.365 0 30.731-3.373 44.965-10.131 15.016 0 28.626 6.091 38.472 15.937 9.845 9.845 15.936 23.455 15.936 38.482h21.446c13.589 0 25.877 5.499 34.781 14.403s14.403 21.192 14.403 34.77z" fill="#ffbfab"/></g></svg>